<?xml version="1.0" encoding="UTF-8" standalone="no"?>
<!-- Created with Inkscape (http://www.inkscape.org/) -->

<svg
   xmlns:dc="http://purl.org/dc/elements/1.1/"
   xmlns:cc="http://creativecommons.org/ns#"
   xmlns:rdf="http://www.w3.org/1999/02/22-rdf-syntax-ns#"
   xmlns:svg="http://www.w3.org/2000/svg"
   xmlns="http://www.w3.org/2000/svg"
   xmlns:xlink="http://www.w3.org/1999/xlink"
   xmlns:sodipodi="http://sodipodi.sourceforge.net/DTD/sodipodi-0.dtd"
   xmlns:inkscape="http://www.inkscape.org/namespaces/inkscape"
   width="64px"
   height="64px"
   id="svg2985"
   version="1.1"
   inkscape:version="0.48.4 r9939"
   sodipodi:docname="citations_politics.svg"
   inkscape:export-filename="/home/gabriele/Dropbox/brainstorming/drawable-xxhdpi/citations.png"
   inkscape:export-xdpi="202.5"
   inkscape:export-ydpi="202.5">
  <defs
     id="defs2987">
    <linearGradient
       inkscape:collect="always"
       id="linearGradient3879">
      <stop
         style="stop-color:#ffffff;stop-opacity:1;"
         offset="0"
         id="stop3881" />
      <stop
         style="stop-color:#ffffff;stop-opacity:0;"
         offset="1"
         id="stop3883" />
    </linearGradient>
    <linearGradient
       id="linearGradient5279">
      <stop
         style="stop-color:#ffc200;stop-opacity:1;"
         offset="0"
         id="stop5281" />
      <stop
         style="stop-color:#ff9a1f;stop-opacity:0.15384616;"
         offset="1"
         id="stop5283" />
    </linearGradient>
    <linearGradient
       inkscape:collect="always"
       id="linearGradient5248">
      <stop
         style="stop-color:#ffffff;stop-opacity:1;"
         offset="0"
         id="stop5250" />
      <stop
         style="stop-color:#ffffff;stop-opacity:0;"
         offset="1"
         id="stop5252" />
    </linearGradient>
    <linearGradient
       inkscape:collect="always"
       xlink:href="#linearGradient5248"
       id="linearGradient5254"
       x1="34.905361"
       y1="55.851734"
       x2="34.198257"
       y2="13.811021"
       gradientUnits="userSpaceOnUse" />
    <linearGradient
       inkscape:collect="always"
       xlink:href="#linearGradient5279"
       id="linearGradient5289"
       x1="32.707199"
       y1="60.739895"
       x2="33.054996"
       y2="3.0142708"
       gradientUnits="userSpaceOnUse"
       gradientTransform="translate(103.82732,-16.181818)" />
    <linearGradient
       inkscape:collect="always"
       xlink:href="#linearGradient5279"
       id="linearGradient5332"
       gradientUnits="userSpaceOnUse"
       gradientTransform="translate(-1.0817709,1.8181824e-7)"
       x1="32.707199"
       y1="60.739895"
       x2="33.054996"
       y2="3.0142708" />
    <linearGradient
       inkscape:collect="always"
       xlink:href="#linearGradient3879"
       id="linearGradient3885"
       x1="15.717084"
       y1="2.0504951"
       x2="15.717084"
       y2="17.515657"
       gradientUnits="userSpaceOnUse"
       gradientTransform="matrix(1,0,0,1.0444192,-0.18181818,-1.6863669)" />
    <linearGradient
       inkscape:collect="always"
       xlink:href="#linearGradient5279"
       id="linearGradient3034"
       x1="30.272726"
       y1="60.454548"
       x2="28.90909"
       y2="7.909091"
       gradientUnits="userSpaceOnUse"
       gradientTransform="translate(0.45454545,-0.9999997)" />
    <linearGradient
       inkscape:collect="always"
       xlink:href="#linearGradient3879"
       id="linearGradient3035"
       gradientUnits="userSpaceOnUse"
       gradientTransform="matrix(1,0,0,1.0444192,-0.18181818,-1.6863669)"
       x1="15.717084"
       y1="2.0504951"
       x2="15.717084"
       y2="17.515657" />
    <linearGradient
       inkscape:collect="always"
       xlink:href="#linearGradient3879"
       id="linearGradient3828"
       gradientUnits="userSpaceOnUse"
       gradientTransform="matrix(1,0,0,1.0444192,-0.18181818,-1.6863669)"
       x1="15.717084"
       y1="2.0504951"
       x2="15.717084"
       y2="17.515657" />
    <linearGradient
       inkscape:collect="always"
       xlink:href="#linearGradient3879"
       id="linearGradient3838"
       gradientUnits="userSpaceOnUse"
       gradientTransform="matrix(1,0,0,1.0444192,70.440472,-1.9515319)"
       x1="15.717084"
       y1="2.0504951"
       x2="15.717084"
       y2="17.515657" />
  </defs>
  <sodipodi:namedview
     id="base"
     pagecolor="#ffffff"
     bordercolor="#666666"
     borderopacity="1.0"
     inkscape:pageopacity="0.0"
     inkscape:pageshadow="2"
     inkscape:zoom="7.9999999"
     inkscape:cx="35.815548"
     inkscape:cy="29.481809"
     inkscape:current-layer="layer1"
     showgrid="true"
     inkscape:document-units="px"
     inkscape:grid-bbox="true"
     inkscape:window-width="1855"
     inkscape:window-height="1056"
     inkscape:window-x="65"
     inkscape:window-y="24"
     inkscape:window-maximized="1" />
  <metadata
     id="metadata2990">
    <rdf:RDF>
      <cc:Work
         rdf:about="">
        <dc:format>image/svg+xml</dc:format>
        <dc:type
           rdf:resource="http://purl.org/dc/dcmitype/StillImage" />
        <dc:title></dc:title>
      </cc:Work>
    </rdf:RDF>
  </metadata>
  <g
     id="layer1"
     inkscape:label="Layer 1"
     inkscape:groupmode="layer">
    <path
       sodipodi:type="arc"
       style="fill:#d15659;fill-opacity:1;stroke:none"
       id="path3834"
       sodipodi:cx="33.057243"
       sodipodi:cy="37.21833"
       sodipodi:rx="32.968853"
       sodipodi:ry="32.968853"
       d="m 44.120501,68.275529 a 32.968853,32.968853 0 1 1 4.509292,-1.997932"
       sodipodi:start="1.2285893"
       sodipodi:end="7.3620365"
       sodipodi:open="true"
       transform="matrix(0.84910884,0,0,0.84910884,3.9325753,0.39581385)" />
    <g
       id="g3811"
       transform="matrix(0.18202962,0,0,0.18202962,28.868027,30.184804)"
       style="fill:#ffffff">
      <path
         sodipodi:nodetypes="cccsssssccssccsscccsscccssscccscccccssssc"
         inkscape:connector-curvature="0"
         id="path3813"
         d="M -43.072426,-9.9089253 -55.595213,-20.799066 c 0.253425,6.264073 3.285175,12.7265952 8.767264,19.364141 0,0 6.015466,3.0040207 12.56218,6.8719951 6.546714,3.8679744 13.612437,9.4202409 15.503569,12.9035909 1.259455,2.31984 2.28353,8.243757 3.370341,14.251728 1.08681,6.007971 2.095719,12.607137 7.3184545,16.851705 4.7502657,3.860585 11.0026912,4.819183 16.2739323,5.488841 3.0046432,0.381709 3.7042472,0.326126 5.4888412,0.385182 0.07103,0.609293 0.114568,0.992842 0.192591,1.733318 0.355045,3.368878 0.782165,8.017517 0.962954,12.903592 0.180789,4.886074 0.190034,9.99223 -0.288886,14.348023 -0.478914,4.355793 -1.635192,7.907536 -2.503682,9.148068 -0.10594,0.154443 -0.202451,0.315332 -0.288886,0.481478 -3.2230539,5.977035 -12.15312181,11.337224 -20.6072282,14.059134 -4.2270528,1.36096 -8.5268048,2.4203 -11.3267068,2.59389 -1.399951,0.0868 -2.508239,0.24736 -2.916266,0.16366 -3.702337,2.30517 -9.418172,6.28534 -13.1291,8.57665 5.524792,0.50981 12.223774,0.23767 12.224011,0.23838 0,0 2.725467,0.006 4.65186,-0.11342 3.852786,-0.23884 8.409635,-1.12537 13.2887732,-2.69627 9.6147732,-3.09561 20.3811048,-8.54615 25.7108868,-18.007252 0.07956,-0.141223 0.211758,-0.242171 0.288887,-0.385181 l -0.0963,-0.0963 c 2.4022,-3.673781 3.316083,-8.030982 3.851818,-12.903591 0.557063,-5.066568 0.576473,-10.622557 0.385182,-15.792455 -0.191296,-5.169898 -0.591192,-9.953863 -0.962954,-13.481364 -0.185874,-1.763751 -0.348876,-3.222869 -0.481478,-4.237 -0.06631,-0.507066 -0.149265,-0.862854 -0.192591,-1.155546 -0.02157,-0.146338 -0.0754,-0.262108 -0.0963,-0.385182 -0.01048,-0.06154 0.02835,-0.153857 0,-0.288886 -0.01417,-0.06752 -0.01048,-0.101781 -0.0963,-0.385182 -0.04283,-0.141716 -0.481108,-0.96232 -0.481478,-0.962954 -1.78e-4,-3.12e-4 -0.213637,-2.136358 -2.197286,-2.074728 L 17.830074,46.36264 c 0,0 -3.883345,0.0055 -8.4740007,-0.577773 C 4.7654177,45.201671 -0.44187398,43.650278 -2.1993816,42.221935 -3.4844191,41.177571 -5.2215737,36.606264 -6.2437908,30.955366 -7.266008,25.304468 -7.7644148,19.09184 -10.577086,13.91107 -14.447227,6.7825133 -22.479985,1.6201 -29.547292,-2.5554529 -36.614599,-6.7310057 -43.072426,-9.9089253 -43.072426,-9.9089253 z"
         style="font-size:medium;font-style:normal;font-variant:normal;font-weight:normal;font-stretch:normal;text-indent:0;text-align:start;text-decoration:none;line-height:normal;letter-spacing:normal;word-spacing:normal;text-transform:none;direction:ltr;block-progression:tb;writing-mode:lr-tb;text-anchor:start;baseline-shift:baseline;color:#000000;fill:#ffffff;fill-opacity:1;stroke:none;stroke-width:3;marker:none;visibility:visible;display:inline;overflow:visible;enable-background:accumulate;font-family:Sans;-inkscape-font-specification:Sans" />
      <path
         sodipodi:nodetypes="acsaaccacccaaa"
         inkscape:connector-curvature="0"
         id="path3815"
         d="M -8.4601122,-31.834975 C -23.149918,-38.751269 -48.4192,-51.659059 -52.022579,-53.628119 c -1.524167,5.347082 21.867336,27.433339 32.098915,30.363001 6.808023,1.949377 11.2309901,4.098883 16.5790292,6.742893 2.67816572,1.324055 5.3670896,2.710614 7.7239827,4.546574 3.264864,2.543246 8.6428371,7.1222161 8.7248961,8.8330702 0.374795,7.6677781 -0.112387,15.2107158 -0.07007,20.9953528 0.0016,0.09628 4.179049,0.676577 6.275341,0.553505 1.495329,-0.08779 4.39428,-0.997947 4.39938,-0.915916 -9.03e-4,-0.06178 0.0014,-0.186335 0,-0.288886 -1.57386,-0.370766 -1.087576,-17.86246671 -2.036544,-24.4532144 -0.731833,-4.6413596 -2.39224,-7.3902356 -4.868493,-10.2491596 -3.726137,-4.301961 -9.2283282,-6.716198 -14.2189997,-9.451918 -3.52975349,-1.934894 -7.4031364,-3.167502 -11.0449665,-4.882158 z"
         style="font-size:medium;font-style:normal;font-variant:normal;font-weight:normal;font-stretch:normal;text-indent:0;text-align:start;text-decoration:none;line-height:normal;letter-spacing:normal;word-spacing:normal;text-transform:none;direction:ltr;block-progression:tb;writing-mode:lr-tb;text-anchor:start;baseline-shift:baseline;color:#000000;fill:#ffffff;fill-opacity:1;stroke:none;stroke-width:3;marker:none;visibility:visible;display:inline;overflow:visible;enable-background:accumulate;font-family:Sans;-inkscape-font-specification:Sans" />
      <path
         sodipodi:nodetypes="cccacaasccscssaccc"
         inkscape:connector-curvature="0"
         id="path3817"
         d="m 75.921082,-49.211514 -26.166101,27.391681 c -2.770462,-4.770702 -6.211331,-8.463919 -10.496205,-12.903592 -4.284874,-4.439673 -9.392959,-10.146381 -15.349425,-13.418023 -23.08729808,-12.680903 -65.828726,-23.405585 -75.807827,-22.307643 4.791153,1.204404 41.204901,17.884738 59.7467955,30.338633 5.2279115,3.511392 10.2338945,7.541355 14.2901755,12.358773 4.729856,5.617385 9.676589,12.411162 11.362864,18.8739064 1.686275,6.4627451 -0.427967,13.1676444 -0.567493,18.035361 -0.139526,4.8677166 -0.439751,7.9356546 -0.288887,11.1702736 0.150864,3.234619 12.099223,8.399514 11.856923,8.588875 -0.2423,0.18936 5.127596,-1.770787 7.959635,-8.916228 0,0 0.148218,-6.648124 0.288887,-11.0739774 0.281367,-8.85171002 0.04419,-8.92202104 0.567493,-17.7464754 0.06338,-1.0688418 -0.0097,-1.9701332 0.398913,-2.8311022 6.093432,-12.838349 28.944938,-31.301257 28.944938,-31.301257 3.262105,-5.437377 14.038721,-36.754803 14.589624,-41.85328 z"
         style="font-size:medium;font-style:normal;font-variant:normal;font-weight:normal;font-stretch:normal;text-indent:0;text-align:start;text-decoration:none;line-height:normal;letter-spacing:normal;word-spacing:normal;text-transform:none;direction:ltr;block-progression:tb;writing-mode:lr-tb;text-anchor:start;baseline-shift:baseline;color:#000000;fill:#ffffff;fill-opacity:1;stroke:none;stroke-width:3;marker:none;visibility:visible;display:inline;overflow:visible;enable-background:accumulate;font-family:Sans;-inkscape-font-specification:Sans" />
      <path
         sodipodi:nodetypes="ccccsccscc"
         inkscape:connector-curvature="0"
         id="path3819"
         d="m 62.222279,77.298891 c -3.596362,-1.30666 -6.579592,-1.019182 -9.244363,0.0963 l 0.385181,20.967001 c 0.0049,0.69887 0.170867,1.39613 0.481478,2.022198 3.567508,7.20414 9.446378,10.49157 14.251727,12.42212 4.80535,1.93055 8.293091,2.97646 10.111023,5.10365 l 19.21532,0.33266 c -4.12457,-4.82622 -21.751301,-12.35604 -25.859706,-14.0066 -3.874014,-1.55639 -6.649018,-3.23361 -8.955478,-7.414756 z"
         style="font-size:medium;font-style:normal;font-variant:normal;font-weight:normal;font-stretch:normal;text-indent:0;text-align:start;text-decoration:none;line-height:normal;letter-spacing:normal;word-spacing:normal;text-transform:none;direction:ltr;block-progression:tb;writing-mode:lr-tb;text-anchor:start;baseline-shift:baseline;color:#000000;fill:#ffffff;fill-opacity:1;stroke:none;stroke-width:3;marker:none;visibility:visible;display:inline;overflow:visible;enable-background:accumulate;font-family:Sans;-inkscape-font-specification:Sans" />
      <path
         sodipodi:nodetypes="csscssscssccccccccssccc"
         inkscape:connector-curvature="0"
         id="path3821"
         d="m 95.325946,-36.558734 c -5.987026,9.552863 -11.214319,21.057754 -14.422348,31.2107129 -1.604014,5.0764777 -2.571169,9.8950685 -2.214795,14.4443186 0.181682,2.3192265 0.889499,4.6537145 2.022204,6.7406825 -7.223361,5.846302 -10.922743,8.85265 -13.577659,15.105325 -1.778776,4.18925 -3.295027,7.745427 -4.814773,9.822136 -1.519746,2.07671 -3.57655,2.876935 -5.808052,4.201894 -2.75838,1.637794 -4.9367,2.25005 -3.859781,4.665704 5.32198,-0.114045 14.573672,0.181189 17.178863,-3.378757 2.605191,-3.559952 4.152069,-7.692617 5.874023,-11.748045 3.419127,-8.052491 6.923406,-10.947744 16.948001,-15.201621 8.601621,-2.008853 12.173401,-1.618932 16.370231,-0.927937 l 9.38443,1.588875 c -1.21507,-3.614139 -1.96724,-7.13362 -7.84371,-10.7369434 -2.34598,-0.3862573 -3.20245,-0.5120607 -7.02956,-0.5164949 -3.827122,-0.00431 -8.291934,0.4665414 -13.481369,1.7333183 -0.229137,0.04702 -0.454684,0.111456 -0.674068,0.192591 -0.300134,0.124706 -0.574528,0.254898 -0.866659,0.385182 -0.26519,-0.647491 -0.487246,-1.4443429 -0.577773,-2.5999777 -0.206057,-2.6303328 0.436624,-6.5690697 1.829614,-10.9776822 2.785977,-8.8172251 8.431646,-19.5632001 14.155435,-28.6960461 0.84812,-7.17491 4.21887,-12.505485 1.42255,-22.344924 z"
         style="font-size:medium;font-style:normal;font-variant:normal;font-weight:normal;font-stretch:normal;text-indent:0;text-align:start;text-decoration:none;line-height:normal;letter-spacing:normal;word-spacing:normal;text-transform:none;direction:ltr;block-progression:tb;writing-mode:lr-tb;text-anchor:start;baseline-shift:baseline;color:#000000;fill:#ffffff;fill-opacity:1;stroke:none;stroke-width:3;marker:none;visibility:visible;display:inline;overflow:visible;enable-background:accumulate;font-family:Sans;-inkscape-font-specification:Sans" />
    </g>
    <g
       style="opacity:0.7;fill:#000000"
       transform="matrix(0.18202962,0,0,0.18202962,28.868027,30.184804)"
       id="g3799">
      <path
         style="font-size:medium;font-style:normal;font-variant:normal;font-weight:normal;font-stretch:normal;text-indent:0;text-align:start;text-decoration:none;line-height:normal;letter-spacing:normal;word-spacing:normal;text-transform:none;direction:ltr;block-progression:tb;writing-mode:lr-tb;text-anchor:start;baseline-shift:baseline;color:#000000;fill:#000000;fill-opacity:1;stroke:none;stroke-width:3;marker:none;visibility:visible;display:inline;overflow:visible;enable-background:accumulate;font-family:Sans;-inkscape-font-specification:Sans"
         d="M -43.072426,-9.9089253 -55.595213,-20.799066 c 0.253425,6.264073 3.285175,12.7265952 8.767264,19.364141 0,0 6.015466,3.0040207 12.56218,6.8719951 6.546714,3.8679744 13.612437,9.4202409 15.503569,12.9035909 1.259455,2.31984 2.28353,8.243757 3.370341,14.251728 1.08681,6.007971 2.095719,12.607137 7.3184545,16.851705 4.7502657,3.860585 11.0026912,4.819183 16.2739323,5.488841 3.0046432,0.381709 3.7042472,0.326126 5.4888412,0.385182 0.07103,0.609293 0.114568,0.992842 0.192591,1.733318 0.355045,3.368878 0.782165,8.017517 0.962954,12.903592 0.180789,4.886074 0.190034,9.99223 -0.288886,14.348023 -0.478914,4.355793 -1.635192,7.907536 -2.503682,9.148068 -0.10594,0.154443 -0.202451,0.315332 -0.288886,0.481478 -3.2230539,5.977035 -12.15312181,11.337224 -20.6072282,14.059134 -4.2270528,1.36096 -8.5268048,2.4203 -11.3267068,2.59389 -1.399951,0.0868 -2.508239,0.24736 -2.916266,0.16366 -3.702337,2.30517 -9.418172,6.28534 -13.1291,8.57665 5.524792,0.50981 12.223774,0.23767 12.224011,0.23838 0,0 2.725467,0.006 4.65186,-0.11342 3.852786,-0.23884 8.409635,-1.12537 13.2887732,-2.69627 9.6147732,-3.09561 20.3811048,-8.54615 25.7108868,-18.007252 0.07956,-0.141223 0.211758,-0.242171 0.288887,-0.385181 l -0.0963,-0.0963 c 2.4022,-3.673781 3.316083,-8.030982 3.851818,-12.903591 0.557063,-5.066568 0.576473,-10.622557 0.385182,-15.792455 -0.191296,-5.169898 -0.591192,-9.953863 -0.962954,-13.481364 -0.185874,-1.763751 -0.348876,-3.222869 -0.481478,-4.237 -0.06631,-0.507066 -0.149265,-0.862854 -0.192591,-1.155546 -0.02157,-0.146338 -0.0754,-0.262108 -0.0963,-0.385182 -0.01048,-0.06154 0.02835,-0.153857 0,-0.288886 -0.01417,-0.06752 -0.01048,-0.101781 -0.0963,-0.385182 -0.04283,-0.141716 -0.481108,-0.96232 -0.481478,-0.962954 -1.78e-4,-3.12e-4 -0.213637,-2.136358 -2.197286,-2.074728 L 17.830074,46.36264 c 0,0 -3.883345,0.0055 -8.4740007,-0.577773 C 4.7654177,45.201671 -0.44187398,43.650278 -2.1993816,42.221935 -3.4844191,41.177571 -5.2215737,36.606264 -6.2437908,30.955366 -7.266008,25.304468 -7.7644148,19.09184 -10.577086,13.91107 -14.447227,6.7825133 -22.479985,1.6201 -29.547292,-2.5554529 -36.614599,-6.7310057 -43.072426,-9.9089253 -43.072426,-9.9089253 z"
         id="path3801"
         inkscape:connector-curvature="0"
         sodipodi:nodetypes="cccsssssccssccsscccsscccssscccscccccssssc" />
      <path
         style="font-size:medium;font-style:normal;font-variant:normal;font-weight:normal;font-stretch:normal;text-indent:0;text-align:start;text-decoration:none;line-height:normal;letter-spacing:normal;word-spacing:normal;text-transform:none;direction:ltr;block-progression:tb;writing-mode:lr-tb;text-anchor:start;baseline-shift:baseline;color:#000000;fill:#000000;fill-opacity:1;stroke:none;stroke-width:3;marker:none;visibility:visible;display:inline;overflow:visible;enable-background:accumulate;font-family:Sans;-inkscape-font-specification:Sans"
         d="M -8.4601122,-31.834975 C -23.149918,-38.751269 -48.4192,-51.659059 -52.022579,-53.628119 c -1.524167,5.347082 21.867336,27.433339 32.098915,30.363001 6.808023,1.949377 11.2309901,4.098883 16.5790292,6.742893 2.67816572,1.324055 5.3670896,2.710614 7.7239827,4.546574 3.264864,2.543246 8.6428371,7.1222161 8.7248961,8.8330702 0.374795,7.6677781 -0.112387,15.2107158 -0.07007,20.9953528 0.0016,0.09628 4.179049,0.676577 6.275341,0.553505 1.495329,-0.08779 4.39428,-0.997947 4.39938,-0.915916 -9.03e-4,-0.06178 0.0014,-0.186335 0,-0.288886 -1.57386,-0.370766 -1.087576,-17.86246671 -2.036544,-24.4532144 -0.731833,-4.6413596 -2.39224,-7.3902356 -4.868493,-10.2491596 -3.726137,-4.301961 -9.2283282,-6.716198 -14.2189997,-9.451918 -3.52975349,-1.934894 -7.4031364,-3.167502 -11.0449665,-4.882158 z"
         id="path3803"
         inkscape:connector-curvature="0"
         sodipodi:nodetypes="acsaaccacccaaa" />
      <path
         sodipodi:type="inkscape:offset"
         inkscape:radius="0"
         inkscape:original="M 97.25 -84.8125 L 75.90625 -49.21875 L 49.75 -21.8125 C 46.979538 -26.583202 43.534874 -30.279077 39.25 -34.71875 C 34.965126 -39.158423 29.862716 -44.884608 23.90625 -48.15625 C 0.81895192 -60.837153 -41.927149 -71.535442 -51.90625 -70.4375 C -47.115097 -69.233096 -10.698144 -52.578895 7.84375 -40.125 C 13.071662 -36.613608 18.068719 -32.567418 22.125 -27.75 C 26.854856 -22.132615 31.813725 -15.337744 33.5 -8.875 C 35.186275 -2.4122549 33.077026 4.2885334 32.9375 9.15625 C 32.797974 14.023967 32.505386 17.077881 32.65625 20.3125 C 32.807114 23.547119 44.7423 28.716889 44.5 28.90625 C 44.2577 29.09561 49.636711 27.145441 52.46875 20 C 52.46875 20 52.609331 13.363353 52.75 8.9375 C 53.031367 0.08578998 52.789197 0.01195436 53.3125 -8.8125 C 53.37588 -9.8813418 53.310137 -10.795281 53.71875 -11.65625 C 59.812182 -24.494599 82.65625 -42.9375 82.65625 -42.9375 C 85.918355 -48.374877 96.699097 -79.714023 97.25 -84.8125 z "
         style="font-size:medium;font-style:normal;font-variant:normal;font-weight:normal;font-stretch:normal;text-indent:0;text-align:start;text-decoration:none;line-height:normal;letter-spacing:normal;word-spacing:normal;text-transform:none;direction:ltr;block-progression:tb;writing-mode:lr-tb;text-anchor:start;baseline-shift:baseline;color:#000000;fill:#000000;fill-opacity:1;stroke:none;stroke-width:3;marker:none;visibility:visible;display:inline;overflow:visible;enable-background:accumulate;font-family:Sans;-inkscape-font-specification:Sans"
         id="path3077"
         d="M 97.25,-84.8125 75.90625,-49.21875 49.75,-21.8125 c -2.770462,-4.770702 -6.215126,-8.466577 -10.5,-12.90625 -4.284874,-4.439673 -9.387284,-10.165858 -15.34375,-13.4375 -23.08729808,-12.680903 -65.833399,-23.379192 -75.8125,-22.28125 4.791153,1.204404 41.208106,17.858605 59.75,30.3125 5.227912,3.511392 10.224969,7.557582 14.28125,12.375 4.729856,5.617385 9.688725,12.412256 11.375,18.875 1.686275,6.4627451 -0.422974,13.1635334 -0.5625,18.03125 -0.139526,4.867717 -0.432114,7.921631 -0.28125,11.15625 0.150864,3.234619 12.08605,8.404389 11.84375,8.59375 -0.2423,0.18936 5.136711,-1.760809 7.96875,-8.90625 0,0 0.140581,-6.636647 0.28125,-11.0625 0.281367,-8.85171002 0.0392,-8.92554564 0.5625,-17.75 0.06338,-1.0688418 -0.0024,-1.982781 0.40625,-2.84375 6.093432,-12.838349 28.9375,-31.28125 28.9375,-31.28125 3.262105,-5.437377 14.042847,-36.776523 14.59375,-41.875 z" />
      <path
         style="font-size:medium;font-style:normal;font-variant:normal;font-weight:normal;font-stretch:normal;text-indent:0;text-align:start;text-decoration:none;line-height:normal;letter-spacing:normal;word-spacing:normal;text-transform:none;direction:ltr;block-progression:tb;writing-mode:lr-tb;text-anchor:start;baseline-shift:baseline;color:#000000;fill:#000000;fill-opacity:1;stroke:none;stroke-width:3;marker:none;visibility:visible;display:inline;overflow:visible;enable-background:accumulate;font-family:Sans;-inkscape-font-specification:Sans"
         d="m 62.222279,77.298891 c -3.596362,-1.30666 -6.579592,-1.019182 -9.244363,0.0963 l 0.385181,20.967001 c 0.0049,0.69887 0.170867,1.39613 0.481478,2.022198 3.567508,7.20414 9.446378,10.49157 14.251727,12.42212 4.80535,1.93055 8.293091,2.97646 10.111023,5.10365 l 19.21532,0.33266 c -4.12457,-4.82622 -21.751301,-12.35604 -25.859706,-14.0066 -3.874014,-1.55639 -6.649018,-3.23361 -8.955478,-7.414756 z"
         id="path3807"
         inkscape:connector-curvature="0"
         sodipodi:nodetypes="ccccsccscc" />
      <path
         style="font-size:medium;font-style:normal;font-variant:normal;font-weight:normal;font-stretch:normal;text-indent:0;text-align:start;text-decoration:none;line-height:normal;letter-spacing:normal;word-spacing:normal;text-transform:none;direction:ltr;block-progression:tb;writing-mode:lr-tb;text-anchor:start;baseline-shift:baseline;color:#000000;fill:#000000;fill-opacity:1;stroke:none;stroke-width:3;marker:none;visibility:visible;display:inline;overflow:visible;enable-background:accumulate;font-family:Sans;-inkscape-font-specification:Sans"
         d="m 95.325946,-36.558734 c -5.987026,9.552863 -11.214319,21.057754 -14.422348,31.2107129 -1.604014,5.0764777 -2.571169,9.8950685 -2.214795,14.4443186 0.181682,2.3192265 0.889499,4.6537145 2.022204,6.7406825 -7.223361,5.846302 -10.922743,8.85265 -13.577659,15.105325 -1.778776,4.18925 -3.295027,7.745427 -4.814773,9.822136 -1.519746,2.07671 -3.57655,2.876935 -5.808052,4.201894 -2.75838,1.637794 -4.9367,2.25005 -3.859781,4.665704 5.32198,-0.114045 14.573672,0.181189 17.178863,-3.378757 2.605191,-3.559952 4.152069,-7.692617 5.874023,-11.748045 3.419127,-8.052491 6.923406,-10.947744 16.948001,-15.201621 8.601621,-2.008853 12.173401,-1.618932 16.370231,-0.927937 l 9.38443,1.588875 c -1.21507,-3.614139 -1.96724,-7.13362 -7.84371,-10.7369434 -2.34598,-0.3862573 -3.20245,-0.5120607 -7.02956,-0.5164949 -3.827122,-0.00431 -8.291934,0.4665414 -13.481369,1.7333183 -0.229137,0.04702 -0.454684,0.111456 -0.674068,0.192591 -0.300134,0.124706 -0.574528,0.254898 -0.866659,0.385182 -0.26519,-0.647491 -0.487246,-1.4443429 -0.577773,-2.5999777 -0.206057,-2.6303328 0.436624,-6.5690697 1.829614,-10.9776822 2.785977,-8.8172251 8.431646,-19.5632001 14.155435,-28.6960461 0.84812,-7.17491 4.21887,-12.505485 1.42255,-22.344924 z"
         id="path3809"
         inkscape:connector-curvature="0"
         sodipodi:nodetypes="csscssscssccccccccssccc" />
    </g>
  </g>
</svg>
