<?xml version="1.0" encoding="UTF-8" standalone="no"?>
<!-- Created with Inkscape (http://www.inkscape.org/) -->

<svg
   xmlns:dc="http://purl.org/dc/elements/1.1/"
   xmlns:cc="http://creativecommons.org/ns#"
   xmlns:rdf="http://www.w3.org/1999/02/22-rdf-syntax-ns#"
   xmlns:svg="http://www.w3.org/2000/svg"
   xmlns="http://www.w3.org/2000/svg"
   xmlns:sodipodi="http://sodipodi.sourceforge.net/DTD/sodipodi-0.dtd"
   xmlns:inkscape="http://www.inkscape.org/namespaces/inkscape"
   width="64px"
   height="64px"
   id="svg4632"
   version="1.1"
   inkscape:version="0.48.4 r9939"
   sodipodi:docname="fun_cat.svg">
  <defs
     id="defs4634" />
  <sodipodi:namedview
     id="base"
     pagecolor="#ffffff"
     bordercolor="#666666"
     borderopacity="1.0"
     inkscape:pageopacity="0.0"
     inkscape:pageshadow="2"
     inkscape:zoom="5.5"
     inkscape:cx="-39.106732"
     inkscape:cy="4.1380497"
     inkscape:current-layer="layer1"
     showgrid="true"
     inkscape:document-units="px"
     inkscape:grid-bbox="true"
     inkscape:window-width="1855"
     inkscape:window-height="1056"
     inkscape:window-x="65"
     inkscape:window-y="24"
     inkscape:window-maximized="1" />
  <metadata
     id="metadata4637">
    <rdf:RDF>
      <cc:Work
         rdf:about="">
        <dc:format>image/svg+xml</dc:format>
        <dc:type
           rdf:resource="http://purl.org/dc/dcmitype/StillImage" />
        <dc:title />
      </cc:Work>
    </rdf:RDF>
  </metadata>
  <g
     id="layer1"
     inkscape:label="Layer 1"
     inkscape:groupmode="layer">
    <path
       sodipodi:type="arc"
       style="fill:#ecf081;fill-opacity:1;stroke:none"
       id="path2983"
       sodipodi:cx="30.662722"
       sodipodi:cy="31.665936"
       sodipodi:rx="26.034386"
       sodipodi:ry="26.034386"
       d="m 56.697107,31.665936 a 26.034386,26.034386 0 1 1 -52.068771,0 26.034386,26.034386 0 1 1 52.068771,0 z"
       transform="matrix(1.03709,0,0,1.03709,0.19999907,-0.84042611)" />
    <path
       style="fill:#000000"
       d="m 21.620513,38.349665 c -2.561922,-0.144188 -4.903345,-0.981792 -6.014548,-2.151599 -1.203891,-1.267386 -1.516962,-3.050635 -0.790663,-4.503602 0.441711,-0.883645 1.128518,-1.477417 2.022254,-1.748321 0.475638,-0.144171 0.965134,-0.165142 1.351145,-0.05789 0.485928,0.13502 0.926339,0.511741 1.172507,1.002948 0.08085,0.161328 0.09265,0.265897 0.03635,0.322193 -0.07412,0.07412 -0.147973,0.04477 -0.338643,-0.134599 -0.369379,-0.347485 -0.809236,-0.466386 -1.279962,-0.345995 -0.297273,0.07603 -0.47106,0.174196 -0.685545,0.387243 -0.320182,0.318033 -0.455006,0.662724 -0.455501,1.164533 -6.38e-4,0.719242 0.335855,1.236868 0.941157,1.447468 0.160164,0.05573 0.197395,0.0598 0.445098,0.04869 0.79218,-0.03552 1.683557,-0.383447 2.855926,-1.114736 0.155135,-0.09677 0.620546,-0.404123 1.034244,-0.683005 1.550432,-1.045181 1.945381,-1.290364 2.656127,-1.648909 1.513259,-0.763383 2.77072,-0.994046 4.287548,-0.786489 0.882003,0.120689 1.661807,0.386994 2.235245,0.763338 0.242799,0.159347 0.550588,0.406715 0.643601,0.517254 0.03219,0.03826 0.06552,0.06956 0.07407,0.06956 0.0085,0 0.10707,-0.08572 0.218945,-0.190495 0.845331,-0.791661 2.19974,-1.228852 3.799756,-1.226526 0.384028,5.16e-4 0.569287,0.01207 0.834448,0.05188 0.795586,0.119425 1.517412,0.35945 2.382255,0.792162 0.712701,0.35659 1.234593,0.682112 2.859486,1.783566 1.193054,0.808728 1.979548,1.239993 2.68244,1.470881 0.553367,0.181774 1.126008,0.253891 1.395022,0.175686 0.500613,-0.145532 0.842045,-0.505872 0.970004,-1.023721 0.02446,-0.09893 0.03816,-0.260507 0.0389,-0.458359 0.0012,-0.336898 -0.03142,-0.494858 -0.1562,-0.754983 -0.309092,-0.644344 -1.063434,-0.975265 -1.738254,-0.762551 -0.193205,0.0609 -0.48163,0.249931 -0.597957,0.391893 -0.07673,0.09364 -0.0959,0.104737 -0.170077,0.09846 -0.06149,-0.0052 -0.09265,-0.02327 -0.117822,-0.06833 -0.03106,-0.0556 -0.02914,-0.0738 0.02088,-0.197002 0.119809,-0.295196 0.406918,-0.65372 0.666546,-0.832349 0.151775,-0.104423 0.420841,-0.228282 0.602873,-0.277519 0.233148,-0.06306 0.788691,-0.05655 1.069504,0.01254 0.672438,0.165446 1.144746,0.432081 1.603379,0.905173 0.394876,0.407325 0.674559,0.865955 0.838915,1.375674 0.323752,1.004061 0.2465,2.005369 -0.227175,2.94451 -0.484122,0.959856 -1.137501,1.580741 -2.250376,2.138468 -2.272049,1.138655 -5.479876,1.428727 -8.509013,0.769438 C 35.91416,37.5563 33.757071,36.527237 32.03835,35.159099 l -0.218437,-0.17388 -0.251674,0.196327 c -2.290147,1.786503 -4.883836,2.829759 -7.755265,3.11939 -0.542573,0.05473 -1.648874,0.07931 -2.192452,0.04872 z"
       id="path3049"
       inkscape:connector-curvature="0" />
  </g>
</svg>
