<?xml version="1.0" encoding="UTF-8" standalone="no"?>
<!-- Created with Inkscape (http://www.inkscape.org/) -->

<svg
   xmlns:dc="http://purl.org/dc/elements/1.1/"
   xmlns:cc="http://creativecommons.org/ns#"
   xmlns:rdf="http://www.w3.org/1999/02/22-rdf-syntax-ns#"
   xmlns:svg="http://www.w3.org/2000/svg"
   xmlns="http://www.w3.org/2000/svg"
   xmlns:sodipodi="http://sodipodi.sourceforge.net/DTD/sodipodi-0.dtd"
   xmlns:inkscape="http://www.inkscape.org/namespaces/inkscape"
   width="64px"
   height="64px"
   id="svg4538"
   version="1.1"
   inkscape:version="0.48.4 r9939"
   sodipodi:docname="inspiring_cat.svg">
  <defs
     id="defs4540" />
  <sodipodi:namedview
     id="base"
     pagecolor="#ffffff"
     bordercolor="#666666"
     borderopacity="1.0"
     inkscape:pageopacity="0.0"
     inkscape:pageshadow="2"
     inkscape:zoom="7.7781746"
     inkscape:cx="9.034993"
     inkscape:cy="24.347088"
     inkscape:current-layer="layer1"
     showgrid="true"
     inkscape:document-units="px"
     inkscape:grid-bbox="true"
     inkscape:window-width="1855"
     inkscape:window-height="1056"
     inkscape:window-x="65"
     inkscape:window-y="24"
     inkscape:window-maximized="1" />
  <metadata
     id="metadata4543">
    <rdf:RDF>
      <cc:Work
         rdf:about="">
        <dc:format>image/svg+xml</dc:format>
        <dc:type
           rdf:resource="http://purl.org/dc/dcmitype/StillImage" />
        <dc:title></dc:title>
      </cc:Work>
    </rdf:RDF>
  </metadata>
  <g
     id="layer1"
     inkscape:label="Layer 1"
     inkscape:groupmode="layer">
    <path
       sodipodi:type="arc"
       style="fill:#ffb13b;fill-opacity:1;stroke:none"
       id="path2983"
       sodipodi:cx="33.041172"
       sodipodi:cy="35.330032"
       sodipodi:rx="28.669966"
       sodipodi:ry="28.669966"
       d="m 61.711138,35.330032 a 28.669966,28.669966 0 1 1 -57.3399317,0 28.669966,28.669966 0 1 1 57.3399317,0 z"
       transform="matrix(0.94175208,0,0,0.94175208,0.88340739,-1.2721313)" />
    <path
       style="fill:#333333"
       d="m 15.430288,39.189212 c 1.394214,-2.012607 5.491978,-7.933238 9.106143,-13.156959 3.614165,-5.223719 6.798222,-9.637974 7.075682,-9.809454 0.571104,-0.352962 2.051136,1.612033 10.573216,14.037757 3.312793,4.830256 6.672613,9.638557 7.46627,10.685113 l 1.443012,1.902828 -19.099629,0 -19.099627,0 2.534933,-3.659285 z m 31.908986,1.744845 C 46.983825,39.538055 32.514719,18.868212 31.88432,18.85588 c -0.345681,-0.0067 -1.925873,1.897852 -3.511537,4.232476 -1.585663,2.334624 -4.925526,7.176912 -7.421915,10.760641 -2.496391,3.583728 -4.538893,6.811218 -4.538893,7.172198 0,0.468317 4.456852,0.65633 15.5583,0.65633 12.285307,0 15.518478,-0.156403 15.368999,-0.743468 z M 27.180381,38.144176 c -1.32276,-0.654767 -3.015366,-1.840168 -3.761343,-2.634224 l -1.356323,-1.44374 1.387033,-1.476429 c 0.762869,-0.812036 2.756768,-2.146578 4.430888,-2.965649 2.403617,-1.175979 3.518774,-1.404619 5.30174,-1.087011 2.630939,0.468661 5.212741,1.9133 7.200186,4.028836 l 1.409413,1.500253 -1.419401,1.540951 c -3.300587,3.583231 -8.902303,4.660506 -13.192193,2.537013 z m 10.261052,-2.180338 c 2.410416,-1.37615 2.512496,-1.530999 1.498182,-2.272683 -1.504787,-1.100327 -3.206613,-1.003426 -3.206613,0.182584 0,1.564235 -1.79688,3.119901 -3.603657,3.119901 -1.787641,0 -4.007656,-1.783793 -4.007656,-3.220171 0,-0.977439 -1.587817,-1.152134 -2.904148,-0.319521 -2.163503,1.368472 4.765628,5.00844 8.173519,4.293662 0.805042,-0.168852 2.62771,-0.971549 4.050373,-1.783772 z m -3.364618,-0.524655 c 1.057187,-0.956742 1.490451,-3.129428 0.62405,-3.129428 -0.245657,0 -0.706726,0.592804 -1.024599,1.317344 -0.322185,0.734369 -1.096148,1.317342 -1.748921,1.317342 -0.768581,0 -1.235263,-0.452689 -1.358064,-1.317342 -0.252322,-1.77664 -1.276621,-1.68254 -1.276621,0.117278 0,2.419658 2.862635,3.433759 4.784155,1.694806 z m 1.268781,-5.016902 c -1.236004,-0.555086 -2.642482,-1.009248 -3.125508,-1.009248 -0.483026,0 -1.886888,0.454162 -3.119695,1.009248 l -2.241468,1.009246 5.366975,0 5.366974,0 -2.247278,-1.009246 z"
       id="path4611"
       inkscape:connector-curvature="0" />
    <path
       transform="matrix(0.94175208,0,0,0.94175208,0.88340739,-1.2721313)"
       d="m 61.711138,35.330032 a 28.669966,28.669966 0 1 1 -57.3399317,0 28.669966,28.669966 0 1 1 57.3399317,0 z"
       sodipodi:ry="28.669966"
       sodipodi:rx="28.669966"
       sodipodi:cy="35.330032"
       sodipodi:cx="33.041172"
       id="path2984"
       style="fill:#ffffff;fill-opacity:1;stroke:none;opacity:0.3"
       sodipodi:type="arc" />
  </g>
</svg>
