<?xml version="1.0" encoding="UTF-8" standalone="no"?>
<!-- Created with Inkscape (http://www.inkscape.org/) -->

<svg
   xmlns:dc="http://purl.org/dc/elements/1.1/"
   xmlns:cc="http://creativecommons.org/ns#"
   xmlns:rdf="http://www.w3.org/1999/02/22-rdf-syntax-ns#"
   xmlns:svg="http://www.w3.org/2000/svg"
   xmlns="http://www.w3.org/2000/svg"
   xmlns:sodipodi="http://sodipodi.sourceforge.net/DTD/sodipodi-0.dtd"
   xmlns:inkscape="http://www.inkscape.org/namespaces/inkscape"
   width="64px"
   height="64px"
   id="svg4147"
   version="1.1"
   inkscape:version="0.48.4 r9939"
   sodipodi:docname="politics_cat.svg">
  <defs
     id="defs4149" />
  <sodipodi:namedview
     id="base"
     pagecolor="#ffffff"
     bordercolor="#666666"
     borderopacity="1.0"
     inkscape:pageopacity="0.0"
     inkscape:pageshadow="2"
     inkscape:zoom="7.7781746"
     inkscape:cx="48.762326"
     inkscape:cy="23.267579"
     inkscape:current-layer="layer1"
     showgrid="true"
     inkscape:document-units="px"
     inkscape:grid-bbox="true"
     inkscape:window-width="1855"
     inkscape:window-height="1056"
     inkscape:window-x="65"
     inkscape:window-y="24"
     inkscape:window-maximized="1" />
  <metadata
     id="metadata4152">
    <rdf:RDF>
      <cc:Work
         rdf:about="">
        <dc:format>image/svg+xml</dc:format>
        <dc:type
           rdf:resource="http://purl.org/dc/dcmitype/StillImage" />
        <dc:title></dc:title>
      </cc:Work>
    </rdf:RDF>
  </metadata>
  <g
     id="layer1"
     inkscape:label="Layer 1"
     inkscape:groupmode="layer">
    <path
       sodipodi:type="arc"
       style="fill:#aa8888;fill-opacity:1;stroke:none"
       id="path2983"
       sodipodi:cx="21.084639"
       sodipodi:cy="33.915821"
       sodipodi:rx="29.184225"
       sodipodi:ry="29.184225"
       d="m 50.268864,33.915821 a 29.184225,29.184225 0 1 1 -58.3684505,0 29.184225,29.184225 0 1 1 58.3684505,0 z"
       transform="matrix(0.92515734,0,0,0.92515734,12.493392,0.62252914)" />
    <path
       style="fill:#333333"
       d="m 22.783127,47.513469 c 0.02731,-0.0246 0.742019,-0.216859 1.588252,-0.427237 3.009655,-0.748218 5.023731,-1.634053 6.116869,-2.690333 0.60638,-0.585936 0.625386,-0.624324 0.620355,-1.253043 -0.0029,-0.356723 -0.05174,-0.88987 -0.10863,-1.184769 -0.0654,-0.338999 0.023,-4.129272 0.240369,-10.306592 0.189093,-5.373725 0.345211,-9.837433 0.34693,-9.919349 0.0024,-0.116917 -1.111259,-0.148939 -5.179958,-0.148939 -2.850696,0 -5.183083,0.01508 -5.183083,0.0335 0,0.01842 1.226793,3.356155 2.726208,7.417172 2.593514,7.024278 2.741654,7.386566 3.043534,7.443242 0.315972,0.05932 0.314636,0.06218 -0.313394,0.671288 -1.915906,1.858168 -3.561149,2.564511 -5.953618,2.55603 -2.277341,-0.0081 -4.327386,-0.880893 -5.829704,-2.48204 -0.630307,-0.67177 -0.637054,-0.686437 -0.33206,-0.721827 0.297611,-0.03453 0.431679,-0.362468 3.044531,-7.446959 l 2.73321,-7.410834 -0.482777,-0.05957 -0.482776,-0.05958 -0.07566,-0.774483 c -0.04161,-0.425966 -0.05622,-0.807636 -0.03245,-0.848156 0.02377,-0.04052 0.37952,-0.11151 0.790569,-0.157757 0.944993,-0.106323 1.601489,-0.264064 3.938374,-0.946302 1.034191,-0.301925 2.266714,-0.608902 2.738942,-0.682171 1.552776,-0.240921 3.039563,0.07124 4.013587,0.842683 0.262886,0.20821 0.528204,0.347519 0.589596,0.309577 0.182428,-0.112746 0.347941,-1.101581 0.50608,-3.023481 0.08188,-0.995179 0.181147,-1.809415 0.220585,-1.809415 0.03944,0 0.138701,0.814236 0.220586,1.809415 0.160143,1.946276 0.323749,2.910795 0.513648,3.028159 0.06555,0.04051 0.262282,-0.06144 0.437174,-0.226555 1.359825,-1.28385 3.654563,-1.302481 7.884095,-0.06401 0.688099,0.201486 1.814079,0.481958 2.502178,0.62327 l 1.251089,0.256932 -0.04277,0.771572 c -0.02352,0.424365 -0.0669,0.811786 -0.0964,0.860936 -0.02949,0.04915 -0.26494,0.08936 -0.523205,0.08936 -0.258265,0 -0.469573,0.01569 -0.469573,0.03488 0,0.01918 1.226595,3.356908 2.725768,7.417171 2.594586,7.027012 2.741061,7.385165 3.043534,7.441874 0.316583,0.05935 0.315419,0.06185 -0.312953,0.671288 -1.334128,1.293923 -2.616958,2.057598 -3.996743,2.379282 -1.242341,0.28964 -3.406557,0.186657 -4.529179,-0.21552 -1.174451,-0.420746 -2.471056,-1.251787 -3.252635,-2.084732 -0.633533,-0.675169 -0.641152,-0.691555 -0.337907,-0.726763 0.296176,-0.03439 0.434118,-0.371901 3.043564,-7.446959 l 2.733328,-7.410938 -5.057915,-0.03109 c -2.781855,-0.01709 -5.082873,-0.0061 -5.113376,0.02438 -0.0305,0.03051 0.09443,4.476852 0.277636,9.880775 0.289809,8.548434 0.312586,9.957162 0.175272,10.839854 -0.125113,0.804259 -0.127764,1.087112 -0.0128,1.364678 0.477979,1.153944 2.939906,2.423392 6.413879,3.307199 0.901321,0.229304 1.692384,0.438039 1.757916,0.463859 0.06553,0.02581 -4.0854,0.05118 -9.224299,0.05634 -5.138897,0.0052 -9.32111,-0.01073 -9.293805,-0.03532 z m 3.186106,-11.194933 c -0.193747,-0.797569 -5.176257,-13.978077 -5.240566,-13.86316 -0.04642,0.08294 -1.182364,3.12431 -2.524332,6.758605 -1.341967,3.634296 -2.496985,6.755261 -2.566706,6.935477 l -0.126765,0.327667 5.248447,0 c 4.308931,0 5.24155,-0.02839 5.209922,-0.158589 z m 22.515919,0.0096 c -0.84953,-2.518911 -5.178248,-13.97758 -5.239163,-13.868731 -0.04688,0.08377 -1.182628,3.124567 -2.523882,6.757325 -1.341254,3.632759 -2.495569,6.752465 -2.565142,6.932681 l -0.126497,0.327667 5.252458,0 c 4.149322,0 5.241909,-0.03128 5.202226,-0.148939 z"
       id="path4272"
       inkscape:connector-curvature="0" />
    <path
       transform="matrix(0.92515734,0,0,0.92515734,12.493392,0.62252914)"
       d="m 50.268864,33.915821 a 29.184225,29.184225 0 1 1 -58.3684505,0 29.184225,29.184225 0 1 1 58.3684505,0 z"
       sodipodi:ry="29.184225"
       sodipodi:rx="29.184225"
       sodipodi:cy="33.915821"
       sodipodi:cx="21.084639"
       id="path2984"
       style="fill:#ffffff;fill-opacity:1;stroke:none;opacity:0.3"
       sodipodi:type="arc" />
  </g>
</svg>
