<?xml version="1.0" encoding="UTF-8" standalone="no"?>
<svg
   xmlns:dc="http://purl.org/dc/elements/1.1/"
   xmlns:cc="http://creativecommons.org/ns#"
   xmlns:rdf="http://www.w3.org/1999/02/22-rdf-syntax-ns#"
   xmlns:svg="http://www.w3.org/2000/svg"
   xmlns="http://www.w3.org/2000/svg"
   xmlns:sodipodi="http://sodipodi.sourceforge.net/DTD/sodipodi-0.dtd"
   xmlns:inkscape="http://www.inkscape.org/namespaces/inkscape"
   version="1.1"
   x="0px"
   y="0px"
   width="48"
   height="48"
   viewBox="0 0 48 48"
   xml:space="preserve"
   id="svg3295"
   inkscape:version="0.48.4 r9939"
   sodipodi:docname="share.svg"><metadata
     id="metadata3303"><rdf:RDF><cc:Work
         rdf:about=""><dc:format>image/svg+xml</dc:format><dc:type
           rdf:resource="http://purl.org/dc/dcmitype/StillImage" /></cc:Work></rdf:RDF></metadata><defs
     id="defs3301" /><sodipodi:namedview
     pagecolor="#ffffff"
     bordercolor="#666666"
     borderopacity="1"
     objecttolerance="10"
     gridtolerance="10"
     guidetolerance="10"
     inkscape:pageopacity="0"
     inkscape:pageshadow="2"
     inkscape:window-width="1855"
     inkscape:window-height="1056"
     id="namedview3299"
     showgrid="false"
     inkscape:snap-center="true"
     inkscape:zoom="15.15"
     inkscape:cx="29.73463"
     inkscape:cy="22.588756"
     inkscape:window-x="65"
     inkscape:window-y="24"
     inkscape:window-maximized="1"
     inkscape:current-layer="svg3295" /><rect
     style="fill:#ffffff;fill-opacity:1;stroke:none"
     id="rect2982"
     width="25.41254"
     height="26.9967"
     x="12.013202"
     y="11.828382"
     ry="1.5442438" /><path
     style="fill:#1a1a1a;fill-opacity:1;stroke:none"
     d="m 23.686373,3.9999106 c -2.124932,0.0338 -4.280736,0.409794 -6.393776,1.162505 C 6.8899399,8.8680716 1.4589459,20.304745 5.1646009,30.707403 8.8702569,41.110061 20.309942,46.541055 30.7126,42.835399 l 2.734596,-1.213703 c 8.718132,-4.671952 12.7095,-15.01375 9.390388,-24.331284 C 39.88464,9.0007936 32.022646,3.8673226 23.686373,3.9999106 z m -9.408458,10.2095624 9.420505,3.601958 9.420504,-3.601958 1.686536,10.92634 -3.592923,-2.075041 -2.376208,4.116953 c -1.075282,-1.603209 -2.883587,-2.669536 -4.942151,-2.737608 l 2.427407,-4.20128 -2.623165,-1.517882 -2.623165,1.517882 2.424395,4.20128 c -2.060208,0.06129 -3.86725,1.1219 -4.948175,2.719538 l -2.367172,-4.098883 -3.592923,2.075041 1.686535,-10.92634 z m 9.408458,11.405195 c 2.769493,0 5.014431,2.245439 5.014431,5.014431 0,2.769492 -2.244938,5.014432 -5.014431,5.014432 -2.76899,0 -5.014431,-2.24494 -5.014431,-5.014432 0,-2.768992 2.245441,-5.014431 5.014431,-5.014431 z"
     id="path3305"
     inkscape:connector-curvature="0" /></svg>