<?xml version="1.0" encoding="UTF-8" standalone="no"?>
<!-- Created with Inkscape (http://www.inkscape.org/) -->

<svg
   xmlns:dc="http://purl.org/dc/elements/1.1/"
   xmlns:cc="http://creativecommons.org/ns#"
   xmlns:rdf="http://www.w3.org/1999/02/22-rdf-syntax-ns#"
   xmlns:svg="http://www.w3.org/2000/svg"
   xmlns="http://www.w3.org/2000/svg"
   xmlns:sodipodi="http://sodipodi.sourceforge.net/DTD/sodipodi-0.dtd"
   xmlns:inkscape="http://www.inkscape.org/namespaces/inkscape"
   width="48px"
   height="48px"
   id="svg3145"
   version="1.1"
   inkscape:version="0.48.4 r9939"
   sodipodi:docname="twitter.svg">
  <defs
     id="defs3147" />
  <sodipodi:namedview
     id="base"
     pagecolor="#ffffff"
     bordercolor="#666666"
     borderopacity="1.0"
     inkscape:pageopacity="0.0"
     inkscape:pageshadow="2"
     inkscape:zoom="9.8994949"
     inkscape:cx="8.7854262"
     inkscape:cy="23.285452"
     inkscape:current-layer="layer1"
     showgrid="true"
     inkscape:grid-bbox="true"
     inkscape:document-units="px"
     inkscape:window-width="1855"
     inkscape:window-height="1056"
     inkscape:window-x="65"
     inkscape:window-y="24"
     inkscape:window-maximized="1" />
  <metadata
     id="metadata3150">
    <rdf:RDF>
      <cc:Work
         rdf:about="">
        <dc:format>image/svg+xml</dc:format>
        <dc:type
           rdf:resource="http://purl.org/dc/dcmitype/StillImage" />
        <dc:title />
      </cc:Work>
    </rdf:RDF>
  </metadata>
  <g
     id="layer1"
     inkscape:label="Layer 1"
     inkscape:groupmode="layer">
    <rect
       style="fill:#ffffff;fill-opacity:1;stroke:none"
       id="rect3751"
       width="25.55686"
       height="28.991379"
       x="11.414723"
       y="9.2101421"
       ry="8.8709764" />
    <path
       style="fill:#55acee;fill-opacity:1"
       d="M 21.45256,43.930997 C 16.953317,43.313325 13.039091,41.376857 9.8562351,38.194001 8.0957093,36.433476 7.0621786,34.972839 5.9581209,32.684997 4.7365622,30.153667 4.1707809,27.967737 4.0347106,25.253786 3.8459295,21.488528 4.4188543,18.537995 5.9581209,15.348304 7.0621786,13.060463 8.0957093,11.599824 9.8562351,9.8392989 11.616759,8.0787746 13.077398,7.0452426 15.365238,5.9411859 c 1.853658,-0.8945298 3.39363,-1.3874605 5.502939,-1.7614384 0.99461,-0.1763429 5.336207,-0.1763429 6.330815,0 2.109309,0.3739779 3.649282,0.8669086 5.502939,1.7614384 2.287842,1.1040567 3.74848,2.1375887 5.509004,3.898113 1.760526,1.7605251 2.794057,3.2211641 3.898114,5.5090051 0.721858,1.495845 1.02934,2.33584 1.392339,3.803663 C 43.947458,20.955706 44,21.468327 44,24.016651 c 0,2.548325 -0.05254,3.060945 -0.498612,4.864683 -0.362999,1.467825 -0.670481,2.307819 -1.392339,3.803663 -1.104057,2.287842 -2.137588,3.748479 -3.898114,5.509004 -1.760524,1.760526 -3.221162,2.794057 -5.509004,3.898114 -1.824312,0.88037 -3.16066,1.318342 -5.211621,1.70805 -0.962981,0.182978 -5.017878,0.270844 -6.03775,0.130832 z m 2.288833,-9.820884 c 1.021076,-0.225419 2.399319,-0.698089 3.172283,-1.087938 4.089289,-2.062452 6.925131,-6.48904 7.168989,-11.190382 l 0.06281,-1.210886 0.992722,-0.98055 c 1.017549,-1.005073 1.418657,-1.52522 1.057015,-1.370711 -0.336967,0.143968 -1.63962,0.50866 -2.032322,0.568971 l -0.389589,0.05983 0.340891,-0.262195 c 0.550921,-0.423738 1.047712,-1.005654 1.362085,-1.595478 0.161517,-0.303036 0.293666,-0.57555 0.293666,-0.605588 0,-0.03003 -0.317758,0.09461 -0.706129,0.277006 -0.388371,0.182391 -1.042729,0.429163 -1.454128,0.548386 l -0.747999,0.216767 -0.372068,-0.335721 c -1.115028,-1.006099 -2.704921,-1.391803 -4.167152,-1.01094 -1.595873,0.415671 -2.928711,1.741913 -3.359916,3.343291 -0.116793,0.433731 -0.152506,1.811723 -0.05364,2.069381 0.04832,0.12592 -0.04866,0.135907 -0.701822,0.07227 -0.41684,-0.04061 -1.074566,-0.140726 -1.461614,-0.222473 -2.418603,-0.510824 -4.977648,-1.955208 -6.727118,-3.796944 l -0.706417,-0.743676 -0.195279,0.455565 c -0.564319,1.316504 -0.499159,2.804218 0.178326,4.071537 0.145328,0.271852 0.512923,0.746292 0.816879,1.054311 l 0.552646,0.560033 -0.308748,-0.0025 c -0.169812,-0.0014 -0.61555,-0.107121 -0.99053,-0.234975 -0.374978,-0.127855 -0.691652,-0.22277 -0.703719,-0.210923 -0.01206,0.01184 0.02173,0.303858 0.07511,0.648914 0.135083,0.873266 0.677862,1.938552 1.309597,2.570289 0.523222,0.52322 1.740104,1.222491 2.1274,1.222491 0.148124,0 0.172505,0.02868 0.09244,0.108749 -0.06251,0.06251 -0.484926,0.112819 -0.993451,0.118323 -0.486586,0.0053 -0.884702,0.04881 -0.884702,0.09676 0,0.266619 0.683028,1.298961 1.1612,1.755059 0.675356,0.644181 1.330836,0.987722 2.322642,1.217311 L 20.624685,30.457771 20.089,30.80339 c -1.596983,1.030361 -2.884349,1.438081 -4.821159,1.526896 l -1.36356,0.06253 0.633082,0.35671 c 1.233514,0.695024 2.82278,1.237732 4.382872,1.496676 1.156963,0.192033 3.654194,0.121549 4.821158,-0.136078 z"
       id="path3218"
       inkscape:connector-curvature="0" />
  </g>
</svg>
